<svg xmlns="http://www.w3.org/2000/svg" width="1200" height="630" fill="none" viewBox="0 0 1200 630"><defs><linearGradient id="bg-left" x1="0" x2="600" y1="0" y2="630" gradientUnits="userSpaceOnUse"><stop stop-color="#111"/><stop offset="1" stop-color="#050505"/></linearGradient><linearGradient id="bg-right" x1="600" x2="1200" y1="0" y2="630" gradientUnits="userSpaceOnUse"><stop stop-color="#EFEDE8"/><stop offset="1" stop-color="#D6D3D1"/></linearGradient></defs><rect width="1200" height="630" fill="#050505" rx="40"/><rect width="600" height="630" fill="url(#bg-left)" rx="40"/><rect width="600" height="630" x="600" fill="url(#bg-right)" rx="40"/><g opacity=".14"><path stroke="#F5F5F4" stroke-linecap="square" stroke-width="22" d="M64 76H544"/><path stroke="#F5F5F4" stroke-linecap="square" stroke-width="22" d="M64 174H516"/><path stroke="#F5F5F4" stroke-linecap="square" stroke-width="22" d="M64 272H544"/><path stroke="#F5F5F4" stroke-linecap="square" stroke-width="22" d="M64 370H496"/><path stroke="#F5F5F4" stroke-linecap="square" stroke-width="22" d="M64 468H544"/><path stroke="#27272A" stroke-linecap="square" stroke-width="22" d="M656 76H1136"/><path stroke="#27272A" stroke-linecap="square" stroke-width="22" d="M684 174H1136"/><path stroke="#27272A" stroke-linecap="square" stroke-width="22" d="M656 272H1136"/><path stroke="#27272A" stroke-linecap="square" stroke-width="22" d="M704 370H1136"/><path stroke="#27272A" stroke-linecap="square" stroke-width="22" d="M656 468H1136"/></g><rect width="132" height="132" x="86" y="84" fill="#111" stroke="#E7E5E4" stroke-width="4" rx="32"/><path stroke="#E7E5E4" stroke-linecap="square" stroke-linejoin="miter" stroke-width="16" d="M175 118H123V182H175"/><path stroke="#E7E5E4" stroke-linecap="square" stroke-width="16" d="M123 150H163"/><text x="86" y="280" fill="#FAFAF9" font-family="Helvetica Neue, Arial, sans-serif" font-size="72" font-weight="700" letter-spacing="-2.5">Chai Pin</text><text x="86" y="364" fill="#FAFAF9" font-family="Helvetica Neue, Arial, sans-serif" font-size="72" font-weight="700" letter-spacing="-2.5">Zheng</text><text x="86" y="434" fill="#D6D3D1" font-family="Helvetica Neue, Arial, sans-serif" font-size="28" font-weight="500">Product engineering, developer tooling,</text><text x="86" y="470" fill="#D6D3D1" font-family="Helvetica Neue, Arial, sans-serif" font-size="28" font-weight="500">and operational systems.</text><text x="86" y="518" fill="#A8A29E" font-family="Helvetica Neue, Arial, sans-serif" font-size="21" font-weight="600" letter-spacing="3">PORTFOLIO / WRITING / PROJECTS</text><text x="86" y="556" fill="#78716C" font-family="Helvetica Neue, Arial, sans-serif" font-size="22" font-weight="500">Singapore-based software engineer and</text><text x="86" y="586" fill="#78716C" font-family="Helvetica Neue, Arial, sans-serif" font-size="22" font-weight="500">NUS Computer Science student.</text><text x="86" y="612" fill="#E7E5E4" font-family="Helvetica Neue, Arial, sans-serif" font-size="18" font-weight="600" letter-spacing="2">ducksss.github.io/Chai-Pin-Zheng</text><g opacity=".88"><path stroke="#111" stroke-linecap="square" stroke-linejoin="miter" stroke-width="56" d="M930 146H786V486H930"/></g><text x="686" y="564" fill="#44403C" font-family="Helvetica Neue, Arial, sans-serif" font-size="20" font-weight="600" letter-spacing="2">CHAI PIN ZHENG</text></svg>